<mxfile host="drawio-plugin" modified="2022-05-03T12:48:26.485Z" agent="5.0 (Macintosh; Intel Mac OS X 10_16_0) AppleWebKit/537.36 (KHTML, like Gecko) Chrome/81.0.4044.113 Safari/537.36" etag="f5KSa4lMaW-3oFr2pxzr" version="13.7.9" type="embed"><diagram id="nCu26IfCQiOhWvkujpkv" name="Page-1"><mxGraphModel dx="656" dy="580" grid="1" gridSize="10" guides="1" tooltips="1" connect="1" arrows="1" fold="1" page="1" pageScale="1" pageWidth="827" pageHeight="1169" math="0" shadow="0"><root><mxCell id="0"/><mxCell id="1" parent="0"/><mxCell id="10" style="edgeStyle=orthogonalEdgeStyle;rounded=0;orthogonalLoop=1;jettySize=auto;html=1;exitX=0.5;exitY=1;exitDx=0;exitDy=0;" parent="1" source="2" target="3" edge="1"><mxGeometry relative="1" as="geometry"/></mxCell><mxCell id="2" value="&lt;pre style=&quot;font-family: &amp;#34;jetbrains mono&amp;#34; , monospace ; font-size: 9.8pt&quot;&gt;AbstractApplicationContext#finishBeanFactoryInitialization&lt;/pre&gt;&lt;pre style=&quot;font-family: &amp;#34;jetbrains mono&amp;#34; , monospace ; font-size: 9.8pt&quot;&gt;实例化非懒加载的单例bean&lt;/pre&gt;" style="rounded=0;whiteSpace=wrap;html=1;comic=1;" parent="1" vertex="1"><mxGeometry x="50" y="50" width="550" height="50" as="geometry"/></mxCell><mxCell id="11" style="edgeStyle=orthogonalEdgeStyle;rounded=0;orthogonalLoop=1;jettySize=auto;html=1;exitX=0.5;exitY=1;exitDx=0;exitDy=0;entryX=0.5;entryY=0;entryDx=0;entryDy=0;" parent="1" source="3" target="4" edge="1"><mxGeometry relative="1" as="geometry"/></mxCell><mxCell id="3" value="&lt;pre style=&quot;font-family: &amp;#34;jetbrains mono&amp;#34; , monospace ; font-size: 9.8pt&quot;&gt;&lt;span style=&quot;font-size: 13.0667px ; white-space: normal&quot;&gt;InstantiationAwareBeanPostProcessor.postProcessBeforeInstantiation&lt;/span&gt;&lt;/pre&gt;&lt;pre style=&quot;font-family: &amp;#34;jetbrains mono&amp;#34; , monospace ; font-size: 9.8pt&quot;&gt;&lt;span style=&quot;font-size: 13.0667px ; white-space: normal&quot;&gt;实例化前&lt;/span&gt;&lt;/pre&gt;" style="rounded=0;whiteSpace=wrap;html=1;comic=1;" parent="1" vertex="1"><mxGeometry x="50" y="130" width="550" height="50" as="geometry"/></mxCell><mxCell id="12" style="edgeStyle=orthogonalEdgeStyle;rounded=0;orthogonalLoop=1;jettySize=auto;html=1;exitX=0.5;exitY=1;exitDx=0;exitDy=0;entryX=0.5;entryY=0;entryDx=0;entryDy=0;" parent="1" source="4" target="5" edge="1"><mxGeometry relative="1" as="geometry"/></mxCell><mxCell id="4" value="实例化" style="rounded=0;whiteSpace=wrap;html=1;comic=1;jiggle=1;" parent="1" vertex="1"><mxGeometry x="50" y="200" width="550" height="40" as="geometry"/></mxCell><mxCell id="13" style="edgeStyle=orthogonalEdgeStyle;rounded=0;orthogonalLoop=1;jettySize=auto;html=1;exitX=0.5;exitY=1;exitDx=0;exitDy=0;" parent="1" source="5" target="6" edge="1"><mxGeometry relative="1" as="geometry"/></mxCell><mxCell id="5" value="InstantiationAwareBeanPostProcessor.postProcessAfterInitialization&lt;br&gt;实例化后" style="rounded=0;whiteSpace=wrap;html=1;comic=1;" parent="1" vertex="1"><mxGeometry x="50" y="275" width="550" height="35" as="geometry"/></mxCell><mxCell id="14" style="edgeStyle=orthogonalEdgeStyle;rounded=0;orthogonalLoop=1;jettySize=auto;html=1;exitX=0.5;exitY=1;exitDx=0;exitDy=0;entryX=0.5;entryY=0;entryDx=0;entryDy=0;" parent="1" source="6" target="7" edge="1"><mxGeometry relative="1" as="geometry"/></mxCell><mxCell id="6" value="属性赋值（spring自带的依赖注入）" style="rounded=0;whiteSpace=wrap;html=1;comic=1;" parent="1" vertex="1"><mxGeometry x="50" y="350" width="550" height="40" as="geometry"/></mxCell><mxCell id="16" style="edgeStyle=orthogonalEdgeStyle;rounded=0;orthogonalLoop=1;jettySize=auto;html=1;exitX=0.5;exitY=1;exitDx=0;exitDy=0;entryX=0.5;entryY=0;entryDx=0;entryDy=0;" parent="1" source="7" target="8" edge="1"><mxGeometry relative="1" as="geometry"/></mxCell><mxCell id="7" value="初始化前" style="rounded=0;whiteSpace=wrap;html=1;comic=1;" parent="1" vertex="1"><mxGeometry x="50" y="410" width="550" height="40" as="geometry"/></mxCell><mxCell id="17" style="edgeStyle=orthogonalEdgeStyle;rounded=0;orthogonalLoop=1;jettySize=auto;html=1;exitX=0.5;exitY=1;exitDx=0;exitDy=0;" parent="1" source="8" target="9" edge="1"><mxGeometry relative="1" as="geometry"/></mxCell><mxCell id="8" value="初始化" style="rounded=0;whiteSpace=wrap;html=1;comic=1;" parent="1" vertex="1"><mxGeometry x="50" y="470" width="560" height="40" as="geometry"/></mxCell><mxCell id="9" value="初始化后" style="rounded=0;whiteSpace=wrap;html=1;comic=1;" parent="1" vertex="1"><mxGeometry x="50" y="544" width="560" height="46" as="geometry"/></mxCell></root></mxGraphModel></diagram></mxfile>